# xmcd
#
# Track frame offsets: 
#        150
#        31543
#        62873
#        82088
#        117690
#        149500
#        175228
#        195845
#        225663
#        264428
#        289825
#
# Disc length: 4074 seconds
#
# Revision: 3
# Processed by: cddbd v1.5.2PL0 Copyright (c) Steve Scherf et al.
# Submitted via: ExactAudioCopyFreeDBPlugin 1.0
#
DISCID=9b0fe80b
DTITLE=Heaven 17 - Retox - Detox [Retox CD2]
DYEAR=1998
DGENRE=Rock
TTITLE0=Brothers and Sisters (Fascist Groove Thang) (Michael Lange)
TTITLE1=Temptation (Rhythm Masters)
TTITLE2=At The Height Of The Fighting (Cisserio)
TTITLE3=Penthouse and Pavement (Ruff Diverz)
TTITLE4=Fascist Groove Thang(Tinman)
TTITLE5=We Live So Fast (Ripe Productions)
TTITLE6=Geisha Boys and Temple Girls (Radio Mix) (Freddie Fresh)
TTITLE7=As One - Temptation (Kirk Degiorgio)
TTITLE8=Penthouse and Pavement (Ben Mitchell)
TTITLE9=Designing Heaven (Giorgio Moroder
TTITLE10=With This Ring (Let Me Go) (Molella - Phil Jay)
EXTD=
EXTT0=
EXTT1=
EXTT2=
EXTT3=
EXTT4=
EXTT5=
EXTT6=
EXTT7=
EXTT8=
EXTT9=
EXTT10=
PLAYORDER=
